<svg width="600" height="83" viewBox="0 0 600 83" fill="none" xmlns="http://www.w3.org/2000/svg">
<path d="M395.5 0.925006V17.325H376.2C372.1 17.325 367.9 17.625 363.8 18.325C357.2 19.425 353.2 25.425 352.6 31.625C351.9 38.825 351.9 46.025 352.6 53.225C353.2 59.325 357.2 65.425 363.8 66.525C367.9 67.225 372 67.525 376.2 67.525H408.2V1.02501H395.5V0.925006ZM395.5 57.425H380C366.5 57.425 364.8 55.725 364.8 42.425C364.8 29.125 366.5 27.425 380 27.425H395.6L395.5 57.425ZM474.3 31.625C473.7 25.525 469.7 19.425 463.1 18.325C459 17.625 454.9 17.325 450.7 17.325H431.4V0.925006H418.7V67.525H450.7C454.8 67.525 459 67.225 463.1 66.525C469.7 65.425 473.7 59.425 474.3 53.225C475 46.025 475 38.825 474.3 31.625ZM447 57.425H431.4V27.425H447C460.5 27.425 462.2 29.125 462.2 42.425C462.2 55.825 460.5 57.425 447 57.425ZM304.6 31.325C303.8 24.425 298.4 18.925 291.6 18.025C282.1 16.625 272.4 16.625 262.8 18.025C255.9 18.925 250.6 24.425 249.8 31.325C249 38.725 249 46.125 249.8 53.425C250.6 60.325 256 65.825 262.9 66.725C272.4 68.125 282.1 68.125 291.7 66.725C298.6 65.825 303.9 60.325 304.7 53.425C305.5 46.125 305.5 38.725 304.6 31.325ZM292.1 50.525C292 53.025 290.6 55.325 288.3 56.425C286.5 57.325 284.5 57.725 282.5 57.625C278.1 57.925 273.6 57.825 269.2 57.425C266.5 57.425 264.1 55.825 263.1 53.425C262.4 51.725 262 49.825 262.1 48.025C261.8 43.525 261.9 38.925 262.3 34.425C262.4 31.925 263.8 29.625 266.1 28.525C267.9 27.625 269.9 27.225 271.9 27.325C276.3 27.025 280.8 27.125 285.2 27.525C287.9 27.525 290.3 29.125 291.3 31.625C292 33.325 292.4 35.125 292.3 37.025C292.6 41.425 292.5 45.925 292.1 50.525ZM537.8 31.325C537 24.425 531.6 18.925 524.8 18.025C515.3 16.625 505.6 16.625 496 18.025C489.1 18.925 483.7 24.425 482.9 31.325C482.1 38.725 482.1 46.125 482.9 53.425C483.7 60.325 489.1 65.825 495.9 66.725C505.4 68.125 515.1 68.125 524.7 66.725C531.6 65.825 536.9 60.325 537.7 53.425C538.5 46.125 538.5 38.725 537.8 31.325ZM525.3 50.525C525.2 53.025 523.8 55.325 521.5 56.425C519.7 57.325 517.7 57.725 515.7 57.625C511.3 57.925 506.8 57.825 502.4 57.425C499.7 57.425 497.3 55.825 496.3 53.425C495.6 51.725 495.2 49.825 495.3 48.025C495 43.525 495.1 38.925 495.5 34.425C495.6 31.925 497 29.625 499.3 28.525C501.1 27.625 503.1 27.225 505.1 27.325C509.5 27.025 514 27.125 518.4 27.525C521.1 27.525 523.5 29.125 524.5 31.525C525.2 33.225 525.6 35.025 525.5 36.925C525.7 41.425 525.7 45.925 525.3 50.525ZM333.7 27.725C332.7 27.825 331.7 28.225 330.8 28.725C330.2 29.025 329.6 29.425 329.1 29.925C328.4 30.525 327.9 31.225 327.6 32.125C327.2 33.225 327 34.325 327 35.525C326.8 38.025 326.8 40.425 326.8 42.925V67.625H314V42.425C314 38.825 314.2 35.225 314.6 31.625C314.7 29.825 315.2 28.125 316.1 26.525C316.9 24.925 317.9 23.525 319.2 22.325C320.5 21.125 322 20.125 323.7 19.425C325.7 18.625 327.9 18.225 330.1 18.025C331.9 17.825 333.7 17.725 335.5 17.625C339.1 17.525 347.7 17.325 347.7 17.325V27.325C343 27.225 338.3 27.325 333.7 27.725ZM117.1 27.725C116.1 27.825 115.1 28.225 114.2 28.725C113.6 29.025 113 29.425 112.5 29.925C111.8 30.525 111.3 31.225 111 32.125C110.6 33.225 110.4 34.325 110.4 35.525C110.2 38.025 110.2 40.425 110.2 42.925V67.625H97.3V42.425C97.3 38.825 97.5 35.225 97.9 31.625C98 29.825 98.5 28.125 99.4 26.525C100.2 24.925 101.2 23.525 102.5 22.325C103.8 21.125 105.3 20.125 107 19.425C109.1 18.625 111.2 18.225 113.4 18.025C115.2 17.825 117 17.725 118.7 17.625C122.3 17.525 130.9 17.325 130.9 17.325V27.325C126.3 27.225 121.7 27.325 117.1 27.725ZM222.4 42.425L247.9 17.325H233.9L215.3 37.425H214C214 37.425 214 23.025 214 17.325H201.2V67.525H214C214 61.825 214 47.425 214 47.425H215.3L234 67.525H248L222.4 42.425ZM600 17.325H586L569.9 34.825L553.8 17.325H539.8L562.9 42.425L539.8 67.525H553.8L569.9 50.025L586 67.525H600L576.9 42.425L600 17.325ZM191 52.725H178.3C178.2 53.125 178 53.825 178 53.825C177.5 55.825 175.7 57.125 173.7 57.125C166.9 57.925 160.1 57.925 153.3 57.125C151 56.925 149.1 55.025 148.8 52.725C148.5 50.225 148.3 47.225 148.2 44.625H191.5V43.225C191.6 39.225 191.4 35.325 190.9 31.325C190.1 24.425 184.7 19.025 177.9 18.025C168.3 16.625 158.7 16.625 149.1 18.025C142.2 18.925 136.9 24.425 136.1 31.325C135.3 38.725 135.3 46.125 136.1 53.425C136.9 60.325 142.3 65.725 149.1 66.725C158.7 68.125 168.3 68.125 177.9 66.725C178.5 66.625 179.2 66.525 179.8 66.325C180.4 66.125 181 65.925 181.6 65.725C182.2 65.525 182.7 65.225 183.3 64.925C184.9 64.025 186.4 62.825 187.6 61.425C188 61.025 188.4 60.525 188.7 60.025C189 59.525 189.3 59.025 189.6 58.425C190 57.625 190.3 56.825 190.5 55.925C190.7 55.025 190.9 54.225 191 53.325C191 53.125 191 52.925 191 52.725ZM148.9 32.025C149.2 29.725 151.1 27.825 153.4 27.625C160.2 26.825 167 26.825 173.8 27.625C176.1 27.825 178 29.725 178.3 32.025C178.5 33.725 178.6 35.425 178.7 37.125H148.4C148.6 35.425 148.7 33.725 148.9 32.025ZM49 42.425C49 48.725 43.9 53.825 37.6 53.825C31.3 53.825 26.2 48.725 26.2 42.425C26.2 36.125 31.3 31.025 37.6 31.025C43.9 31.025 49 36.125 49 42.425ZM37.5 17.425C44.5 17.425 51.2 20.425 55.9 25.625L69.7 17.625L40.6 0.825C38.7 -0.275 36.3 -0.275 34.4 0.825L5.3 17.625L19.1 25.625C23.8 20.425 30.5 17.425 37.5 17.425ZM61.3 34.825C62.1 37.325 62.5 39.825 62.5 42.425C62.5 54.125 54.3 64.325 42.9 66.825V82.725L72 65.925C73.9 64.825 75.1 62.825 75.1 60.625V27.025L61.3 34.825ZM12.6 42.425C12.6 39.825 13 37.325 13.8 34.825L0 26.925V60.525C0 62.725 1.2 64.725 3.1 65.825L32.2 82.625V66.725C20.8 64.325 12.6 54.125 12.6 42.425Z" fill="black"/>
</svg>
